<svg width="18" height="13" viewBox="0 0 18 13" fill="none" xmlns="http://www.w3.org/2000/svg">
<path d="M6.00002 10.17L2.53002 6.70002C2.34305 6.51304 2.08945 6.408 1.82502 6.408C1.5606 6.408 1.307 6.51304 1.12002 6.70002C0.933046 6.88699 0.828003 7.14059 0.828003 7.40502C0.828003 7.53595 0.853792 7.66559 0.903897 7.78656C0.954002 7.90752 1.02744 8.01743 1.12002 8.11002L5.30002 12.29C5.69002 12.68 6.32002 12.68 6.71002 12.29L17.29 1.71002C17.477 1.52304 17.582 1.26944 17.582 1.00502C17.582 0.74059 17.477 0.486994 17.29 0.300016C17.103 0.113039 16.8494 0.00799561 16.585 0.00799561C16.3206 0.00799561 16.067 0.113039 15.88 0.300016L6.00002 10.17Z" fill="#151313"/>
</svg>
