<svg width="17" height="16" viewBox="0 0 17 16" fill="none" xmlns="http://www.w3.org/2000/svg">
<path d="M11.3333 9.25C11.6944 9.25 11.9931 9.13194 12.2292 8.89583C12.4653 8.65972 12.5833 8.36111 12.5833 8C12.5833 7.63889 12.4653 7.34028 12.2292 7.10417C11.9931 6.86806 11.6944 6.75 11.3333 6.75C10.9722 6.75 10.6736 6.86806 10.4375 7.10417C10.2014 7.34028 10.0833 7.63889 10.0833 8C10.0833 8.36111 10.2014 8.65972 10.4375 8.89583C10.6736 9.13194 10.9722 9.25 11.3333 9.25ZM2.16667 13.8333V2.16667V13.8333ZM2.16667 15.5C1.70833 15.5 1.31583 15.3369 0.989167 15.0108C0.663055 14.6842 0.5 14.2917 0.5 13.8333V2.16667C0.5 1.70833 0.663055 1.31583 0.989167 0.989167C1.31583 0.663055 1.70833 0.5 2.16667 0.5H13.8333C14.2917 0.5 14.6842 0.663055 15.0108 0.989167C15.3369 1.31583 15.5 1.70833 15.5 2.16667V4.25H13.8333V2.16667H2.16667V13.8333H13.8333V11.75H15.5V13.8333C15.5 14.2917 15.3369 14.6842 15.0108 15.0108C14.6842 15.3369 14.2917 15.5 13.8333 15.5H2.16667ZM8.83333 12.1667C8.375 12.1667 7.98278 12.0036 7.65667 11.6775C7.33 11.3508 7.16667 10.9583 7.16667 10.5V5.5C7.16667 5.04167 7.33 4.64917 7.65667 4.3225C7.98278 3.99639 8.375 3.83333 8.83333 3.83333H14.6667C15.125 3.83333 15.5175 3.99639 15.8442 4.3225C16.1703 4.64917 16.3333 5.04167 16.3333 5.5V10.5C16.3333 10.9583 16.1703 11.3508 15.8442 11.6775C15.5175 12.0036 15.125 12.1667 14.6667 12.1667H8.83333ZM14.6667 10.5V5.5H8.83333V10.5H14.6667Z" fill="#151313"/>
</svg>
