<svg width="29" height="30" viewBox="0 0 29 30" fill="none" xmlns="http://www.w3.org/2000/svg">
<path d="M24.1667 9.41406C23.4618 9.73958 22.7003 9.96094 21.8822 10.0781C22.7381 9.55729 23.3234 8.79557 23.638 7.79297C22.8199 8.28776 21.9766 8.61979 21.1081 8.78906C20.3403 7.92969 19.3774 7.5 18.2194 7.5C17.1243 7.5 16.1898 7.90039 15.4157 8.70117C14.6416 9.50195 14.2546 10.4688 14.2546 11.6016C14.2546 11.9792 14.286 12.2917 14.349 12.5391C12.7253 12.4479 11.2023 12.0247 9.77995 11.2695C8.35764 10.5143 7.14931 9.50521 6.15495 8.24219C5.78993 8.89323 5.60742 9.58333 5.60742 10.3125C5.60742 11.7969 6.18012 12.9362 7.32552 13.7305C6.73394 13.7174 6.1046 13.5482 5.4375 13.2227V13.2617C5.4375 14.2383 5.75217 15.1074 6.38151 15.8691C7.01085 16.6309 7.78494 17.1029 8.70378 17.2852C8.33876 17.3893 8.0178 17.4414 7.74089 17.4414C7.57726 17.4414 7.33181 17.4154 7.00456 17.3633C7.26888 18.1836 7.73774 18.8607 8.41113 19.3945C9.08453 19.9284 9.84918 20.2018 10.7051 20.2148C9.24501 21.3867 7.60243 21.9727 5.77734 21.9727C5.45009 21.9727 5.13542 21.9531 4.83333 21.9141C6.69618 23.138 8.72266 23.75 10.9128 23.75C12.3225 23.75 13.6441 23.5189 14.8776 23.0566C16.1111 22.5944 17.1684 21.9759 18.0495 21.2012C18.9306 20.4264 19.6889 19.5345 20.3245 18.5254C20.9602 17.5163 21.4322 16.4616 21.7406 15.3613C22.0489 14.2611 22.2031 13.1641 22.2031 12.0703C22.2031 11.8359 22.1968 11.6602 22.1842 11.543C22.9772 10.957 23.638 10.2474 24.1667 9.41406ZM29 5.625V24.375C29 25.9245 28.4682 27.2493 27.4046 28.3496C26.341 29.4499 25.0603 30 23.5625 30H5.4375C3.93967 30 2.65896 29.4499 1.59538 28.3496C0.531793 27.2493 0 25.9245 0 24.375V5.625C0 4.07552 0.531793 2.75065 1.59538 1.65039C2.65896 0.55013 3.93967 0 5.4375 0H23.5625C25.0603 0 26.341 0.55013 27.4046 1.65039C28.4682 2.75065 29 4.07552 29 5.625Z" fill="white"/>
</svg>
