<svg width="18" height="18" viewBox="0 0 18 18" fill="none" xmlns="http://www.w3.org/2000/svg">
<circle cx="9" cy="9" r="9" fill="#707070"/>
<path d="M8.06731 11.4495V11.3849C8.07449 10.6995 8.14626 10.154 8.28262 9.74848C8.41899 9.34296 8.61277 9.0146 8.86396 8.76339C9.11516 8.51218 9.4166 8.28071 9.76827 8.06898C9.97999 7.93979 10.1702 7.78727 10.3388 7.61143C10.5075 7.43199 10.6403 7.22564 10.7372 6.99238C10.8376 6.75912 10.8879 6.50073 10.8879 6.21723C10.8879 5.86554 10.8054 5.5605 10.6403 5.30212C10.4752 5.04373 10.2545 4.84456 9.9782 4.7046C9.70188 4.56464 9.39506 4.49467 9.05774 4.49467C8.76349 4.49467 8.47999 4.55567 8.20727 4.67769C7.93454 4.7997 7.70667 4.9917 7.52365 5.25367C7.34064 5.51564 7.23478 5.85836 7.20607 6.28182H5.84961C5.87832 5.67175 6.03621 5.1496 6.32329 4.71537C6.61396 4.28114 6.99614 3.94919 7.46982 3.71951C7.9471 3.48984 8.4764 3.375 9.05774 3.375C9.68932 3.375 10.2384 3.5006 10.7049 3.75181C11.175 4.00302 11.5374 4.34753 11.7922 4.78535C12.0506 5.22317 12.1798 5.72199 12.1798 6.28182C12.1798 6.67658 12.1187 7.03365 11.9967 7.35304C11.8783 7.67243 11.7061 7.95773 11.48 8.20894C11.2575 8.46015 10.9884 8.68265 10.6726 8.87643C10.3568 9.07381 10.1038 9.28195 9.9136 9.50086C9.72341 9.71618 9.58526 9.97277 9.49913 10.2706C9.41301 10.5685 9.36636 10.9399 9.35918 11.3849V11.4495H8.06731ZM8.75631 14.6363C8.49076 14.6363 8.26289 14.5412 8.0727 14.351C7.8825 14.1608 7.78741 13.9329 7.78741 13.6673C7.78741 13.4017 7.8825 13.1739 8.0727 12.9837C8.26289 12.7935 8.49076 12.6984 8.75631 12.6984C9.02186 12.6984 9.24973 12.7935 9.43992 12.9837C9.63011 13.1739 9.72521 13.4017 9.72521 13.6673C9.72521 13.8432 9.68035 14.0046 9.59064 14.1518C9.50451 14.2989 9.38789 14.4173 9.24076 14.5071C9.09722 14.5932 8.93573 14.6363 8.75631 14.6363Z" fill="white"/>
</svg>
