<svg width="30" height="30" viewBox="0 0 30 30" fill="none" xmlns="http://www.w3.org/2000/svg">
<path d="M29.895 7.605C29.8871 6.44664 29.6738 5.29886 29.265 4.215C28.9639 3.42189 28.4981 2.70164 27.8982 2.10178C27.2984 1.50192 26.5781 1.03608 25.785 0.735C24.7011 0.326196 23.5534 0.112891 22.395 0.105C20.46 -1.02445e-07 19.89 0 15 0C10.11 0 9.54 -1.02445e-07 7.605 0.105C6.44664 0.112891 5.29886 0.326196 4.215 0.735C3.42189 1.03608 2.70164 1.50192 2.10178 2.10178C1.50192 2.70164 1.03608 3.42189 0.734999 4.215C0.326195 5.29886 0.112891 6.44664 0.105 7.605C-4.65661e-07 9.54 0 10.11 0 15C0 19.89 -4.65661e-07 20.46 0.105 22.395C0.121145 23.5574 0.334161 24.7087 0.734999 25.8C1.03474 26.5895 1.50019 27.3056 2.1 27.9C2.69729 28.5035 3.41909 28.9693 4.215 29.265C5.29886 29.6738 6.44664 29.8871 7.605 29.895C9.54 30 10.11 30 15 30C19.89 30 20.46 30 22.395 29.895C23.5534 29.8871 24.7011 29.6738 25.785 29.265C26.5809 28.9693 27.3027 28.5035 27.9 27.9C28.4998 27.3056 28.9653 26.5895 29.265 25.8C29.6734 24.7108 29.8867 23.5582 29.895 22.395C30 20.46 30 19.89 30 15C30 10.11 30 9.54 29.895 7.605Z" fill="white"/>
<path d="M22.2581 8.87139C22.2581 8.87139 23.8769 8.27621 23.742 9.72165C23.6971 10.3168 23.2923 12.4 22.9776 14.6531L21.8983 21.3277C21.8983 21.3277 21.8084 22.3054 20.9989 22.4755C20.1895 22.6455 18.9753 21.8803 18.7505 21.7103C18.5706 21.5827 15.3778 19.6697 14.2536 18.7344C13.9388 18.4793 13.579 17.9691 14.2985 17.374L19.0203 13.1227C19.5599 12.6125 20.0996 11.4222 17.8511 12.8676L11.5555 16.9063C11.5555 16.9063 10.836 17.3314 9.48692 16.9488L6.56393 16.0986C6.56393 16.0986 5.48467 15.4609 7.3284 14.8232C11.8253 12.8251 17.3565 10.7844 22.2581 8.87139Z" fill="#151313"/>
</svg>
