<svg width="30" height="30" viewBox="0 0 30 30" fill="none" xmlns="http://www.w3.org/2000/svg">
<rect width="29.25" height="29.25" rx="5" fill="white"/>
<path d="M11.0348 13.907C12.1855 12.7563 14.1923 12.7563 15.3431 13.907L16.0611 14.625L17.4972 13.1889L16.7791 12.4709C15.8214 11.5121 14.5458 10.983 13.1889 10.983C11.832 10.983 10.5564 11.5121 9.59868 12.4709L7.44352 14.625C6.4932 15.5784 5.95956 16.8696 5.95956 18.2157C5.95956 19.5619 6.4932 20.8531 7.44352 21.8065C7.91464 22.2783 8.47435 22.6523 9.09048 22.9072C9.70661 23.162 10.367 23.2925 11.0338 23.2913C11.7007 23.2927 12.3613 23.1623 12.9776 22.9074C13.5939 22.6526 14.1538 22.2784 14.625 21.8065L15.3431 21.0884L13.907 19.6523L13.1889 20.3704C12.6166 20.9402 11.8419 21.2601 11.0343 21.2601C10.2267 21.2601 9.45195 20.9402 8.87962 20.3704C8.30935 19.7983 7.98912 19.0235 7.98912 18.2157C7.98912 17.408 8.30935 16.6332 8.87962 16.0611L11.0348 13.907Z" fill="black"/>
<path d="M14.625 7.44354L13.9069 8.16158L15.343 9.59768L16.0611 8.87963C16.6334 8.30985 17.4081 7.98997 18.2157 7.98997C19.0233 7.98997 19.7981 8.30985 20.3704 8.87963C20.9407 9.4517 21.2609 10.2265 21.2609 11.0343C21.2609 11.842 20.9407 12.6169 20.3704 13.1889L18.2152 15.3431C17.0645 16.4938 15.0577 16.4938 13.9069 15.3431L13.1889 14.625L11.7528 16.0611L12.4709 16.7792C13.4286 17.7379 14.7042 18.267 16.0611 18.267C17.418 18.267 18.6936 17.7379 19.6513 16.7792L21.8065 14.625C22.7568 13.6716 23.2904 12.3804 23.2904 11.0343C23.2904 9.68815 22.7568 8.39692 21.8065 7.44354C20.8534 6.49271 19.562 5.95874 18.2157 5.95874C16.8694 5.95874 15.5781 6.49271 14.625 7.44354Z" fill="black"/>
</svg>
