<svg width="203" height="47" viewBox="0 0 203 47" fill="none" xmlns="http://www.w3.org/2000/svg">
<path d="M59.7271 26.7975C59.7271 24.814 60.4578 23.1959 61.9193 21.9432C63.3808 20.6905 65.2859 20.0642 67.6347 20.0642C69.8008 20.0642 71.432 20.5601 72.5281 21.5518V19.6336C72.5281 18.4592 72.1366 17.5457 71.3537 16.8933C70.5968 16.2147 69.5399 15.8755 68.1828 15.8755C66.3037 15.8755 64.3986 16.4105 62.4673 17.4805L60.8232 14.5053C63.2503 12.9395 65.847 12.1565 68.6134 12.1565C74.0418 12.1565 76.7559 14.7402 76.7559 19.9076V33.1001H73.037L72.6847 31.5734C71.4581 32.9305 69.7095 33.609 67.439 33.609C65.2468 33.609 63.4069 32.9827 61.9193 31.73C60.4578 30.4512 59.7271 28.807 59.7271 26.7975ZM65.1685 24.1746C64.3855 24.8271 63.9941 25.6622 63.9941 26.68C63.9941 27.6978 64.3986 28.546 65.2076 29.2246C66.0167 29.877 67.0606 30.2032 68.3394 30.2032C69.5921 30.2032 70.6229 29.877 71.432 29.2246C72.241 28.5721 72.6455 27.7239 72.6455 26.68C72.6455 25.61 72.241 24.7618 71.432 24.1355C70.649 23.483 69.6051 23.1568 68.3002 23.1568C67.0214 23.1568 65.9775 23.4961 65.1685 24.1746ZM91.2629 12.1565V16.4627C87.4265 16.4627 85.5083 19.0725 85.5083 24.2921V33.1001H81.2413V12.6654H85.43V15.8755C85.8476 14.8055 86.5783 13.9181 87.6223 13.2135C88.6662 12.5088 89.8797 12.1565 91.2629 12.1565ZM92.982 29.5377L95.644 27.4238C96.8706 29.1985 98.5017 30.0858 100.537 30.0858C101.477 30.0858 102.234 29.864 102.808 29.4203C103.382 28.9766 103.669 28.3503 103.669 27.5412C103.669 26.8366 103.33 26.2363 102.651 25.7405C101.973 25.2446 101.138 24.8271 100.146 24.4878C99.1803 24.1224 98.2016 23.7179 97.2099 23.2742C96.2443 22.8306 95.4222 22.1651 94.7436 21.2777C94.0651 20.3643 93.7258 19.2552 93.7258 17.9503C93.7258 16.1756 94.3783 14.7663 95.6831 13.7224C97.0141 12.6785 98.6975 12.1565 100.733 12.1565C102.456 12.1565 103.865 12.548 104.961 13.3309C106.083 14.0878 106.892 14.962 107.388 15.9538L104.452 17.9111C103.513 16.3974 102.195 15.6406 100.498 15.6406C99.6892 15.6406 99.0237 15.8494 98.5017 16.2669C98.0059 16.6584 97.7579 17.1934 97.7579 17.872C97.7579 18.5766 98.0972 19.1638 98.7757 19.6336C99.4804 20.1033 100.316 20.5079 101.281 20.8471C102.247 21.1864 103.212 21.5779 104.178 22.0215C105.17 22.4391 106.005 23.1046 106.683 24.018C107.388 24.9054 107.74 26.0145 107.74 27.3455C107.74 29.2246 107.036 30.7382 105.626 31.8865C104.243 33.0349 102.482 33.609 100.342 33.609C96.9489 33.609 94.4957 32.2519 92.982 29.5377ZM139.95 19.751V33.1001H135.722V20.8471C135.722 17.611 134.417 15.9929 131.807 15.9929C130.581 15.9929 129.576 16.4235 128.793 17.2848C128.036 18.146 127.658 19.3465 127.658 20.8863V33.1001H123.391V20.4557C123.391 19.0725 123.038 17.9894 122.334 17.2065C121.655 16.3974 120.702 15.9929 119.476 15.9929C118.301 15.9929 117.323 16.4366 116.54 17.3239C115.757 18.2112 115.365 19.3726 115.365 20.808V33.1001H111.098V12.6654H115.287V15.3274C115.705 14.4662 116.396 13.7224 117.362 13.096C118.354 12.4697 119.502 12.1565 120.807 12.1565C123.652 12.1565 125.609 13.2918 126.679 15.5623C127.958 13.2918 130.059 12.1565 132.982 12.1565C135.226 12.1565 136.948 12.8481 138.149 14.2313C139.349 15.6145 139.95 17.4544 139.95 19.751ZM151.556 33.609C149.102 33.609 147.302 32.7869 146.153 31.1428C145.005 29.4986 144.431 27.4369 144.431 24.9575V12.6654H148.659V25.3099C148.659 26.6931 149.037 27.7892 149.794 28.5982C150.577 29.3811 151.569 29.7726 152.769 29.7726C154.1 29.7726 155.17 29.3289 155.979 28.4416C156.814 27.5543 157.232 26.406 157.232 24.9967V12.6654H161.499V33.1001H157.31V30.4381C156.814 31.3254 156.057 32.0823 155.04 32.7086C154.022 33.3089 152.86 33.609 151.556 33.609ZM164.662 29.5377L167.324 27.4238C168.551 29.1985 170.182 30.0858 172.217 30.0858C173.157 30.0858 173.914 29.864 174.488 29.4203C175.062 28.9766 175.349 28.3503 175.349 27.5412C175.349 26.8366 175.01 26.2363 174.331 25.7405C173.653 25.2446 172.818 24.8271 171.826 24.4878C170.86 24.1224 169.882 23.7179 168.89 23.2742C167.924 22.8306 167.102 22.1651 166.424 21.2777C165.745 20.3643 165.406 19.2552 165.406 17.9503C165.406 16.1756 166.058 14.7663 167.363 13.7224C168.694 12.6785 170.378 12.1565 172.413 12.1565C174.136 12.1565 175.545 12.548 176.641 13.3309C177.763 14.0878 178.572 14.962 179.068 15.9538L176.132 17.9111C175.193 16.3974 173.875 15.6406 172.178 15.6406C171.369 15.6406 170.704 15.8494 170.182 16.2669C169.686 16.6584 169.438 17.1934 169.438 17.872C169.438 18.5766 169.777 19.1638 170.456 19.6336C171.16 20.1033 171.996 20.5079 172.961 20.8471C173.927 21.1864 174.892 21.5779 175.858 22.0215C176.85 22.4391 177.685 23.1046 178.363 24.018C179.068 24.9054 179.42 26.0145 179.42 27.3455C179.42 29.2246 178.716 30.7382 177.307 31.8865C175.923 33.0349 174.162 33.609 172.022 33.609C168.629 33.609 166.176 32.2519 164.662 29.5377ZM184.501 30.6338C182.544 28.6504 181.565 26.0928 181.565 22.9611C181.565 19.8293 182.518 17.2456 184.423 15.21C186.328 13.1743 188.69 12.1565 191.508 12.1565C194.562 12.1565 196.963 13.1352 198.711 15.0925C200.46 17.0238 201.334 19.6075 201.334 22.8436C201.334 23.3134 201.321 23.6657 201.295 23.9006H185.91C185.936 25.7013 186.537 27.1498 187.711 28.2459C188.912 29.342 190.425 29.8901 192.252 29.8901C194.705 29.8901 196.584 28.9375 197.889 27.0323L200.708 29.1463C200.055 30.2685 199.011 31.2993 197.576 32.2389C196.141 33.1523 194.34 33.609 192.174 33.609C189.016 33.609 186.458 32.6173 184.501 30.6338ZM186.067 20.9646H196.989C196.911 19.3204 196.362 18.0416 195.345 17.1282C194.327 16.1887 193.061 15.7189 191.547 15.7189C190.06 15.7189 188.807 16.2017 187.789 17.1673C186.771 18.1068 186.197 19.3726 186.067 20.9646Z" fill="#FDFDFB"/>
<path d="M43.5846 28.5862C42.5159 28.6741 41.4467 28.4247 40.5272 27.873C39.6078 27.3214 38.8846 26.4953 38.4593 25.511L36.5527 21.2058C36.2644 20.5599 35.799 20.009 35.2103 19.6169C34.6217 19.2248 33.934 19.0075 33.2269 18.9904C32.5198 18.9732 31.8224 19.1568 31.2154 19.5199C30.6085 19.8829 30.1168 20.4106 29.7976 21.0417L26.6506 27.2536C26.2282 28.0859 25.5805 28.7828 24.7813 29.2649C23.982 29.747 23.0634 29.9949 22.1301 29.9802C21.1774 29.9594 20.2486 29.678 19.4444 29.1666C18.6403 28.6552 17.9915 27.9333 17.5686 27.0793L16.0926 24.0759C15.803 23.4959 15.3669 23.0016 14.8275 22.6421C14.2881 22.2825 13.6642 22.07 13.0174 22.0258C12.3632 21.9755 11.7075 22.1011 11.1181 22.3895C10.5288 22.6778 10.0272 23.1185 9.66547 23.6659L4.54019 31.3948C4.40668 31.5905 4.31893 31.8137 4.28344 32.048C4.24795 32.2822 4.26563 32.5214 4.33518 32.7479C4.47869 33.2502 4.63245 33.7729 4.77596 34.2547C4.8641 34.5452 5.03165 34.8054 5.25971 35.0058C5.48777 35.2062 5.76727 35.339 6.06672 35.389C6.36617 35.4391 6.67366 35.4046 6.95453 35.2893C7.23539 35.174 7.47847 34.9825 7.65636 34.7365L8.54816 33.4039C9.05142 32.6731 9.7358 32.0855 10.5343 31.6986C11.3328 31.3116 12.2181 31.1386 13.1035 31.1965C13.989 31.2543 14.8442 31.5411 15.5856 32.0286C16.3269 32.5162 16.929 33.1879 17.3329 33.9779L18.8397 37.0531C19.1493 37.6775 19.6272 38.2029 20.2194 38.5703C20.8117 38.9377 21.4947 39.1323 22.1916 39.1323C22.8886 39.1323 23.5716 38.9377 24.1639 38.5703C24.7561 38.2029 25.234 37.6775 25.5436 37.0531L28.6187 30.9028C29.0601 30.0464 29.7339 29.3318 30.5629 28.8409C31.3918 28.35 32.3423 28.1027 33.3054 28.1273C34.2685 28.1519 35.2052 28.4474 36.008 28.9801C36.8108 29.5127 37.4472 30.2608 37.8442 31.1385L39.7611 35.454C40.0134 36.0376 40.4069 36.5492 40.9062 36.9429C41.4054 37.3365 41.9947 37.5999 42.621 37.7092H42.8773C43.5055 37.7522 44.1324 37.6088 44.6795 37.2969C45.2265 36.9851 45.6693 36.5188 45.9524 35.9563C46.7347 34.4197 46.9663 32.6613 46.6085 30.9745V30.8413C46.4721 30.1582 46.0877 29.5498 45.5293 29.1334C44.9709 28.717 44.2782 28.522 43.5846 28.5862Z" fill="url(#paint0_linear_1248_1513)"/>
<path d="M13.1104 20.6727C13.9989 20.7189 14.859 21.0018 15.6015 21.492C16.344 21.9822 16.942 22.6619 17.3336 23.4609L18.8507 26.536C19.1617 27.1549 19.6393 27.6747 20.2297 28.0369C20.82 28.3991 21.4998 28.5893 22.1924 28.5861C22.8858 28.5865 23.5658 28.3952 24.1573 28.0335C24.7488 27.6717 25.2288 27.1535 25.5443 26.536L28.6195 20.3857C29.06 19.5289 29.733 18.8136 30.5613 18.3218C31.3897 17.8301 32.3399 17.5817 33.303 17.6052C34.266 17.6288 35.203 17.9233 36.0063 18.4549C36.8097 18.9866 37.4469 19.7339 37.845 20.6112L39.7619 24.9062C40.0255 25.5286 40.4486 26.0705 40.9885 26.4773C41.5284 26.884 42.166 27.1411 42.837 27.2228H42.8985C43.2473 27.2451 43.5964 27.1853 43.9179 27.0482C44.2394 26.9111 44.5242 26.7005 44.7495 26.4333C44.9748 26.1662 45.1343 25.8499 45.2151 25.5099C45.296 25.1699 45.296 24.8157 45.2152 24.4757C44.7744 22.5383 44.3029 20.6214 43.7903 18.7046C43.7277 18.4698 43.5969 18.2588 43.4145 18.0983C43.232 17.9377 43.0061 17.8348 42.7653 17.8025C41.8656 17.7229 41.0037 17.4032 40.2698 16.8766C39.536 16.3501 38.9569 15.6362 38.5933 14.8094L36.6354 10.4119C36.3482 9.76553 35.8836 9.21383 35.2955 8.82078C34.7074 8.42773 34.02 8.20943 33.3129 8.19119C32.6058 8.17295 31.9081 8.35552 31.3005 8.71772C30.693 9.07993 30.2005 9.60694 29.8803 10.2376L26.8052 16.388C26.3722 17.2196 25.7194 17.9166 24.9178 18.403C24.1163 18.8894 23.1966 19.1466 22.259 19.1466C21.3214 19.1466 20.4018 18.8894 19.6002 18.403C18.7987 17.9166 18.1459 17.2196 17.7129 16.388L16.2061 13.3128C15.9131 12.7261 15.4715 12.2264 14.9253 11.8635C14.379 11.5007 13.7472 11.2874 13.0927 11.2449C12.4383 11.2023 11.7842 11.3321 11.1956 11.6212C10.6069 11.9103 10.1044 12.3486 9.73798 12.8925L2.56259 23.7171C2.4362 23.9063 2.35084 24.1199 2.312 24.3442C2.27316 24.5684 2.2817 24.7982 2.33707 25.0189C2.48058 25.6135 2.62409 26.1978 2.77785 26.7923C2.85893 27.0986 3.02647 27.3751 3.26045 27.5887C3.49443 27.8023 3.78497 27.9441 4.09736 27.9971C4.40975 28.0501 4.73078 28.012 5.02211 27.8874C5.31344 27.7628 5.56275 27.557 5.74026 27.2946L8.66167 22.8971C9.14701 22.1727 9.8122 21.5869 10.5921 21.1969C11.3719 20.807 12.2397 20.6264 13.1104 20.6727Z" fill="url(#paint1_linear_1248_1513)"/>
<path d="M38.7872 40.6101C39.0828 40.4914 39.345 40.3023 39.5509 40.0592C39.7569 39.8162 39.9004 39.5266 39.9691 39.2155C40.0378 38.9045 40.0295 38.5813 39.945 38.2742C39.8605 37.967 39.7024 37.6852 39.4843 37.453C39.0984 37.0413 38.7863 36.5663 38.5617 36.0486L36.6039 31.6614C36.3166 31.015 35.852 30.4633 35.2639 30.0703C34.6759 29.6772 33.9884 29.4589 33.2814 29.4407C32.5743 29.4225 31.8765 29.605 31.2689 29.9672C30.6614 30.3294 30.169 30.8565 29.8488 31.4871L26.7736 37.6375C26.3514 38.4768 25.704 39.1821 24.9039 39.6745C24.1037 40.1669 23.1824 40.4269 22.2428 40.4256C21.3024 40.4255 20.3808 40.1624 19.582 39.6661C18.7832 39.1698 18.139 38.4601 17.7224 37.617L16.2053 34.5418C15.9146 33.9526 15.4739 33.4504 14.9274 33.0856C14.381 32.7208 13.7482 32.5063 13.0926 32.4637C12.437 32.4211 11.7817 32.5519 11.1927 32.8429C10.6037 33.1339 10.1017 33.5749 9.73717 34.1215L6.73376 38.4883C6.60158 38.6885 6.51554 38.9156 6.48186 39.1532C6.44818 39.3907 6.46769 39.6328 6.539 39.8619L7.11303 41.5839C7.69173 43.3473 8.90091 44.835 10.5088 45.7619C12.1166 46.6888 14.01 46.9896 15.826 46.6067L18.7987 45.9712C25.5177 44.5562 32.1532 42.7699 38.6745 40.6204H38.7872V40.6101Z" fill="url(#paint2_linear_1248_1513)"/>
<path d="M40.1194 14.5529C40.3561 14.6956 40.6301 14.7642 40.9061 14.7499C41.182 14.7355 41.4474 14.6388 41.668 14.4723C41.8885 14.3058 42.0542 14.0771 42.1436 13.8155C42.233 13.554 42.242 13.2718 42.1696 13.0051C41.6673 11.3547 41.1445 9.70438 40.6115 8.06429L39.6582 5.17364C39.0755 3.41349 37.8652 1.92952 36.2581 1.00496C34.651 0.0804059 32.7597 -0.219988 30.9452 0.161115L27.9725 0.786399C21.244 2.21253 14.5986 4.00564 8.06596 6.15769L5.17531 7.11099C3.41385 7.69168 1.92847 8.9017 1.0036 10.5094C0.0787219 12.117 -0.220657 14.0093 0.162784 15.824L0.788068 18.7966C0.852167 19.1111 1.00826 19.3995 1.23654 19.6251C1.46482 19.8507 1.75498 20.0034 2.0702 20.0638C2.38542 20.1242 2.71148 20.0896 3.007 19.9644C3.30251 19.8391 3.55415 19.6289 3.72998 19.3604L8.54774 12.185C9.051 11.4542 9.73537 10.8666 10.5339 10.4797C11.3324 10.0927 12.2177 9.91972 13.1031 9.97757C13.9885 10.0354 14.8438 10.3222 15.5851 10.8097C16.3265 11.2973 16.9286 11.969 17.3325 12.759L18.8495 15.8342C19.1607 16.4508 19.6369 16.9689 20.2251 17.3308C20.8133 17.6928 21.4903 17.8844 22.181 17.8843C22.8714 17.8832 23.548 17.6911 24.136 17.3293C24.7239 16.9675 25.2003 16.45 25.5124 15.8342L28.5876 9.68388C29.0289 8.82753 29.7028 8.11292 30.5317 7.62201C31.3606 7.13109 32.3112 6.88376 33.2743 6.90837C34.2374 6.93299 35.174 7.22855 35.9768 7.76116C36.7796 8.29377 37.416 9.04187 37.8131 9.91964L39.6069 13.9481C39.7181 14.1877 39.8916 14.393 40.1092 14.5426L40.1194 14.5529Z" fill="url(#paint3_linear_1248_1513)"/>
<defs>
<linearGradient id="paint0_linear_1248_1513" x1="4.23268" y1="29.0372" x2="46.793" y2="29.0372" gradientUnits="userSpaceOnUse">
<stop stop-color="#6FC0A5"/>
<stop offset="0.71" stop-color="#3FB287"/>
</linearGradient>
<linearGradient id="paint1_linear_1248_1513" x1="2.17307" y1="18.4483" x2="45.2972" y2="18.4483" gradientUnits="userSpaceOnUse">
<stop stop-color="#3EB285"/>
<stop offset="1" stop-color="#71C1A7"/>
</linearGradient>
<linearGradient id="paint2_linear_1248_1513" x1="6.45699" y1="38.109" x2="40.0173" y2="38.109" gradientUnits="userSpaceOnUse">
<stop stop-color="#3AB187"/>
<stop offset="1" stop-color="#6BBFA2"/>
</linearGradient>
<linearGradient id="paint3_linear_1248_1513" x1="-0.0012245" y1="10.0632" x2="42.2413" y2="10.0632" gradientUnits="userSpaceOnUse">
<stop stop-color="#70C1A7"/>
<stop offset="0.71" stop-color="#40B286"/>
</linearGradient>
</defs>
</svg>
