<svg width="30" height="30" viewBox="0 0 30 30" fill="none" xmlns="http://www.w3.org/2000/svg">
<path d="M29.895 7.605C29.8871 6.44664 29.6738 5.29886 29.265 4.215C28.9639 3.42189 28.4981 2.70164 27.8982 2.10178C27.2984 1.50192 26.5781 1.03608 25.785 0.735C24.7011 0.326196 23.5534 0.112891 22.395 0.105C20.46 -1.02445e-07 19.89 0 15 0C10.11 0 9.54 -1.02445e-07 7.605 0.105C6.44664 0.112891 5.29886 0.326196 4.215 0.735C3.42189 1.03608 2.70164 1.50192 2.10178 2.10178C1.50192 2.70164 1.03608 3.42189 0.734999 4.215C0.326195 5.29886 0.112891 6.44664 0.105 7.605C-4.65661e-07 9.54 0 10.11 0 15C0 19.89 -4.65661e-07 20.46 0.105 22.395C0.121145 23.5574 0.334161 24.7087 0.734999 25.8C1.03474 26.5895 1.50019 27.3056 2.1 27.9C2.69729 28.5035 3.41909 28.9693 4.215 29.265C5.29886 29.6738 6.44664 29.8871 7.605 29.895C9.54 30 10.11 30 15 30C19.89 30 20.46 30 22.395 29.895C23.5534 29.8871 24.7011 29.6738 25.785 29.265C26.5809 28.9693 27.3027 28.5035 27.9 27.9C28.4998 27.3056 28.9653 26.5895 29.265 25.8C29.6734 24.7108 29.8867 23.5582 29.895 22.395C30 20.46 30 19.89 30 15C30 10.11 30 9.54 29.895 7.605Z" fill="white"/>
<path fill-rule="evenodd" clip-rule="evenodd" d="M12.429 11.969H16.143V13.819C16.678 12.755 18.05 11.799 20.111 11.799C24.062 11.799 25 13.917 25 17.803V25H21V18.688C21 16.475 20.465 15.227 19.103 15.227C17.214 15.227 16.429 16.572 16.429 18.687V25H12.429V11.969V11.969ZM5.57 24.83H9.57V11.799H5.57V24.83V24.83ZM10.143 7.55C10.1431 7.88528 10.0767 8.21724 9.94739 8.52659C9.81812 8.83594 9.62865 9.11651 9.39 9.352C8.9064 9.83262 8.25181 10.1017 7.57 10.1C6.88939 10.0995 6.23631 9.8312 5.752 9.353C5.51421 9.11671 5.32539 8.83582 5.19634 8.52643C5.0673 8.21704 5.00058 7.88522 5 7.55C5 6.873 5.27 6.225 5.753 5.747C6.23689 5.26816 6.89024 4.9997 7.571 5C8.253 5 8.907 5.269 9.39 5.747C9.872 6.225 10.143 6.873 10.143 7.55Z" fill="#151313"/>
</svg>
