<svg width="30" height="30" viewBox="0 0 30 30" fill="none" xmlns="http://www.w3.org/2000/svg">
<path d="M29.895 7.605C29.8871 6.44664 29.6738 5.29886 29.265 4.215C28.9639 3.42189 28.4981 2.70164 27.8982 2.10178C27.2984 1.50192 26.5781 1.03608 25.785 0.735C24.7011 0.326196 23.5534 0.112891 22.395 0.105C20.46 -1.02445e-07 19.89 0 15 0C10.11 0 9.54 -1.02445e-07 7.605 0.105C6.44664 0.112891 5.29886 0.326196 4.215 0.735C3.42189 1.03608 2.70164 1.50192 2.10178 2.10178C1.50192 2.70164 1.03608 3.42189 0.734999 4.215C0.326195 5.29886 0.112891 6.44664 0.105 7.605C-4.65661e-07 9.54 0 10.11 0 15C0 19.89 -4.65661e-07 20.46 0.105 22.395C0.121145 23.5574 0.334161 24.7087 0.734999 25.8C1.03474 26.5895 1.50019 27.3056 2.1 27.9C2.69729 28.5035 3.41909 28.9693 4.215 29.265C5.29886 29.6738 6.44664 29.8871 7.605 29.895C9.54 30 10.11 30 15 30C19.89 30 20.46 30 22.395 29.895C23.5534 29.8871 24.7011 29.6738 25.785 29.265C26.5809 28.9693 27.3027 28.5035 27.9 27.9C28.4998 27.3056 28.9653 26.5895 29.265 25.8C29.6734 24.7108 29.8867 23.5582 29.895 22.395C30 20.46 30 19.89 30 15C30 10.11 30 9.54 29.895 7.605Z" fill="white"/>
<path d="M23.4036 9.26268L25 7.81669V7.5H19.4714L15.5312 16.7897L11.0495 7.5H5.2526V7.81669L7.11719 9.94272C7.29948 10.0998 7.39323 10.3306 7.36979 10.5614V18.9157C7.42708 19.2177 7.32552 19.5246 7.10156 19.743L5 22.1563V22.4681H10.9531V22.1514L8.85417 19.7455C8.74171 19.6379 8.65711 19.5072 8.60698 19.3637C8.55684 19.2202 8.54251 19.0677 8.5651 18.9182V11.6907L13.7917 22.473H14.3984L18.8932 11.6907V20.2807C18.8932 20.5065 18.8932 20.5532 18.737 20.7029L17.1198 22.1833V22.5H24.9635V22.1833L23.4036 20.7373C23.2682 20.6391 23.1979 20.4746 23.2266 20.3151V9.68494C23.2131 9.60605 23.2224 9.52519 23.2536 9.45088C23.2847 9.37657 23.3366 9.31155 23.4036 9.26268Z" fill="#151313"/>
</svg>
