<svg width="29" height="30" viewBox="0 0 29 30" fill="none" xmlns="http://www.w3.org/2000/svg">
<path d="M5.29523 0C2.3619 0 0 2.44335 0 5.47782V24.5222C0 27.5567 2.3619 30 5.29523 30H15.2731V18.2719H12.2752V14.0494H15.2731V10.4419C15.2731 7.60764 17.0443 5.00532 21.1247 5.00532C22.7768 5.00532 23.9984 5.16939 23.9984 5.16939L23.9023 9.11253C23.9023 9.11253 22.6564 9.10035 21.2969 9.10035C19.8254 9.10035 19.5895 9.80169 19.5895 10.966V14.0494H24.0192L23.8262 18.2719H19.5895V30.0001H23.7048C26.6381 30.0001 29 27.5567 29 24.5222V5.47785C29 2.44338 26.6381 3e-05 23.7048 3e-05H5.2952L5.29523 0Z" fill="white"/>
</svg>
