<svg width="30" height="30" viewBox="0 0 30 30" fill="none" xmlns="http://www.w3.org/2000/svg">
<path d="M29.895 7.605C29.8871 6.44664 29.6738 5.29886 29.265 4.215C28.9639 3.42189 28.4981 2.70164 27.8982 2.10178C27.2984 1.50192 26.5781 1.03608 25.785 0.735C24.7011 0.326196 23.5534 0.112891 22.395 0.105C20.46 -1.02445e-07 19.89 0 15 0C10.11 0 9.54 -1.02445e-07 7.605 0.105C6.44664 0.112891 5.29886 0.326196 4.215 0.735C3.42189 1.03608 2.70164 1.50192 2.10178 2.10178C1.50192 2.70164 1.03608 3.42189 0.734999 4.215C0.326195 5.29886 0.112891 6.44664 0.105 7.605C-4.65661e-07 9.54 0 10.11 0 15C0 19.89 -4.65661e-07 20.46 0.105 22.395C0.121145 23.5574 0.334161 24.7087 0.734999 25.8C1.03474 26.5895 1.50019 27.3056 2.1 27.9C2.69729 28.5035 3.41909 28.9693 4.215 29.265C5.29886 29.6738 6.44664 29.8871 7.605 29.895C9.54 30 10.11 30 15 30C19.89 30 20.46 30 22.395 29.895C23.5534 29.8871 24.7011 29.6738 25.785 29.265C26.5809 28.9693 27.3027 28.5035 27.9 27.9C28.4998 27.3056 28.9653 26.5895 29.265 25.8C29.6734 24.7108 29.8867 23.5582 29.895 22.395C30 20.46 30 19.89 30 15C30 10.11 30 9.54 29.895 7.605Z" fill="white"/>
<path d="M22.7878 7.70436C21.3628 7.02641 19.8199 6.53435 18.2127 6.25005C18.1986 6.24959 18.1846 6.25229 18.1716 6.25796C18.1587 6.26362 18.1471 6.27212 18.1377 6.28285C17.9449 6.6437 17.7198 7.11389 17.5698 7.47473C15.8652 7.2123 14.1315 7.2123 12.4268 7.47473C12.2768 7.10295 12.0518 6.6437 11.8483 6.28285C11.8375 6.26099 11.8054 6.25005 11.7733 6.25005C10.1661 6.53435 8.63388 7.02641 7.19813 7.70436C7.18741 7.70436 7.1767 7.71529 7.16598 7.72623C4.25162 12.1766 3.44802 16.5067 3.84446 20.7931C3.84446 20.815 3.85518 20.8369 3.87661 20.8478C5.80523 22.2912 7.65885 23.1659 9.49105 23.7455C9.52319 23.7564 9.55534 23.7455 9.56605 23.7236C9.99463 23.1222 10.3804 22.488 10.7125 21.821C10.7339 21.7772 10.7125 21.7335 10.6697 21.7226C10.0589 21.482 9.48033 21.1977 8.91246 20.8697C8.8696 20.8478 8.8696 20.7822 8.90175 20.7494C9.01961 20.6619 9.13747 20.5635 9.25533 20.476C9.27676 20.4541 9.3089 20.4541 9.33033 20.4651C13.0161 22.1818 16.9913 22.1818 20.6342 20.4651C20.6556 20.4541 20.6878 20.4541 20.7092 20.476C20.8271 20.5744 20.9449 20.6619 21.0628 20.7603C21.1057 20.7931 21.1056 20.8587 21.0521 20.8806C20.4949 21.2196 19.9056 21.4929 19.2949 21.7335C19.252 21.7444 19.2413 21.7991 19.252 21.8319C19.5949 22.4989 19.9806 23.1331 20.3985 23.7345C20.4306 23.7455 20.4628 23.7564 20.4949 23.7455C22.3378 23.1659 24.1915 22.2912 26.1201 20.8478C26.1415 20.8369 26.1522 20.815 26.1522 20.7931C26.6237 15.8397 25.3701 11.5424 22.8307 7.72623C22.82 7.71529 22.8093 7.70436 22.7878 7.70436ZM11.2697 18.1797C10.1661 18.1797 9.24461 17.1409 9.24461 15.8616C9.24461 14.5822 10.1446 13.5435 11.2697 13.5435C12.4054 13.5435 13.3054 14.5932 13.2947 15.8616C13.2947 17.1409 12.3947 18.1797 11.2697 18.1797ZM18.7377 18.1797C17.6341 18.1797 16.7127 17.1409 16.7127 15.8616C16.7127 14.5822 17.6127 13.5435 18.7377 13.5435C19.8735 13.5435 20.7735 14.5932 20.7628 15.8616C20.7628 17.1409 19.8735 18.1797 18.7377 18.1797Z" fill="#151313"/>
</svg>
