<svg width="164" height="39" viewBox="0 0 164 39" fill="none" xmlns="http://www.w3.org/2000/svg">
<path d="M48.3985 21.4864C48.3985 19.8791 48.9906 18.568 50.1749 17.5529C51.3592 16.5378 52.903 16.0302 54.8063 16.0302C56.5616 16.0302 57.8833 16.432 58.7715 17.2356V15.6813C58.7715 14.7296 58.4543 13.9894 57.8199 13.4607C57.2066 12.9109 56.3501 12.636 55.2504 12.636C53.7277 12.636 52.1839 13.0695 50.619 13.9366L49.2867 11.5257C51.2534 10.2568 53.3577 9.62238 55.5993 9.62238C59.9981 9.62238 62.1975 11.716 62.1975 15.9033V26.5936H59.1839L58.8984 25.3565C57.9045 26.4562 56.4876 27.006 54.6477 27.006C52.8712 27.006 51.3803 26.4985 50.1749 25.4834C48.9906 24.4471 48.3985 23.1148 48.3985 21.4864ZM52.8078 19.361C52.1734 19.8897 51.8561 20.5665 51.8561 21.3912C51.8561 22.216 52.1839 22.9033 52.8395 23.4532C53.4951 23.9819 54.341 24.2462 55.3773 24.2462C56.3924 24.2462 57.2277 23.9819 57.8833 23.4532C58.5389 22.9245 58.8667 22.2371 58.8667 21.3912C58.8667 20.5242 58.5389 19.8369 57.8833 19.3293C57.2489 18.8006 56.403 18.5363 55.3456 18.5363C54.3093 18.5363 53.4634 18.8112 52.8078 19.361ZM73.953 9.62238V13.1118C70.8442 13.1118 69.2898 15.2266 69.2898 19.4562V26.5936H65.8321V10.0348H69.2264V12.636C69.5648 11.7689 70.1569 11.0499 71.0028 10.4789C71.8487 9.90788 72.8321 9.62238 73.953 9.62238ZM75.346 23.7069L77.5031 21.9939C78.4971 23.432 79.8188 24.151 81.4683 24.151C82.2297 24.151 82.843 23.9713 83.3082 23.6118C83.7735 23.2522 84.0061 22.7447 84.0061 22.0891C84.0061 21.5181 83.7312 21.0317 83.1813 20.6299C82.6315 20.2281 81.9548 19.8897 81.1511 19.6148C80.3687 19.3187 79.5756 18.9909 78.772 18.6314C77.9895 18.2719 77.3233 17.7326 76.7735 17.0136C76.2237 16.2734 75.9487 15.3746 75.9487 14.3172C75.9487 12.8792 76.4774 11.7372 77.5348 10.8913C78.6134 10.0453 79.9774 9.62238 81.627 9.62238C83.0227 9.62238 84.1647 9.9396 85.0529 10.574C85.9623 11.1873 86.6179 11.8958 87.0197 12.6994L84.6405 14.2855C83.8792 13.0589 82.8112 12.4456 81.4366 12.4456C80.781 12.4456 80.2418 12.6148 79.8188 12.9532C79.417 13.2704 79.2161 13.7039 79.2161 14.2538C79.2161 14.8248 79.491 15.3006 80.0409 15.6813C80.6119 16.0619 81.2886 16.3897 82.0711 16.6647C82.8535 16.9396 83.636 17.2568 84.4185 17.6163C85.2221 17.9547 85.8988 18.494 86.4487 19.2341C87.0197 19.9532 87.3052 20.852 87.3052 21.9305C87.3052 23.4532 86.7342 24.6797 85.5922 25.6102C84.4714 26.5408 83.0439 27.006 81.3097 27.006C78.5605 27.006 76.5726 25.9063 75.346 23.7069ZM113.405 15.7764V26.5936H109.979V16.6647C109.979 14.0423 108.922 12.7311 106.807 12.7311C105.813 12.7311 104.999 13.0801 104.365 13.778C103.751 14.4758 103.445 15.4486 103.445 16.6964V26.5936H99.987V16.3474C99.987 15.2266 99.7015 14.349 99.1305 13.7145C98.5807 13.0589 97.8088 12.7311 96.8148 12.7311C95.8632 12.7311 95.0701 13.0906 94.4357 13.8097C93.8012 14.5287 93.484 15.4698 93.484 16.6329V26.5936H90.0263V10.0348H93.4206V12.1919C93.759 11.494 94.3194 10.8913 95.1019 10.3837C95.9055 9.87616 96.836 9.62238 97.8934 9.62238C100.199 9.62238 101.785 10.5423 102.652 12.3822C103.688 10.5423 105.39 9.62238 107.759 9.62238C109.578 9.62238 110.973 10.1828 111.946 11.3036C112.919 12.4245 113.405 13.9154 113.405 15.7764ZM122.81 27.006C120.822 27.006 119.363 26.3399 118.432 25.0075C117.502 23.6752 117.037 22.0045 117.037 19.9955V10.0348H120.463V20.281C120.463 21.4018 120.769 22.29 121.382 22.9456C122.017 23.58 122.821 23.8973 123.793 23.8973C124.872 23.8973 125.739 23.5377 126.395 22.8187C127.071 22.0997 127.41 21.1692 127.41 20.0272V10.0348H130.867V26.5936H127.473V24.4365C127.071 25.1556 126.458 25.7689 125.633 26.2764C124.808 26.7628 123.867 27.006 122.81 27.006ZM133.431 23.7069L135.588 21.9939C136.582 23.432 137.903 24.151 139.553 24.151C140.314 24.151 140.928 23.9713 141.393 23.6118C141.858 23.2522 142.091 22.7447 142.091 22.0891C142.091 21.5181 141.816 21.0317 141.266 20.6299C140.716 20.2281 140.039 19.8897 139.236 19.6148C138.453 19.3187 137.66 18.9909 136.857 18.6314C136.074 18.2719 135.408 17.7326 134.858 17.0136C134.308 16.2734 134.033 15.3746 134.033 14.3172C134.033 12.8792 134.562 11.7372 135.619 10.8913C136.698 10.0453 138.062 9.62238 139.712 9.62238C141.107 9.62238 142.249 9.9396 143.138 10.574C144.047 11.1873 144.703 11.8958 145.104 12.6994L142.725 14.2855C141.964 13.0589 140.896 12.4456 139.521 12.4456C138.866 12.4456 138.326 12.6148 137.903 12.9532C137.502 13.2704 137.301 13.7039 137.301 14.2538C137.301 14.8248 137.576 15.3006 138.125 15.6813C138.696 16.0619 139.373 16.3897 140.156 16.6647C140.938 16.9396 141.721 17.2568 142.503 17.6163C143.307 17.9547 143.983 18.494 144.533 19.2341C145.104 19.9532 145.39 20.852 145.39 21.9305C145.39 23.4532 144.819 24.6797 143.677 25.6102C142.556 26.5408 141.129 27.006 139.394 27.006C136.645 27.006 134.657 25.9063 133.431 23.7069ZM149.507 24.5951C147.921 22.9879 147.128 20.9154 147.128 18.3776C147.128 15.8399 147.899 13.7462 149.443 12.0967C150.987 10.4472 152.901 9.62238 155.185 9.62238C157.659 9.62238 159.605 10.4154 161.022 12.0015C162.439 13.5665 163.147 15.6601 163.147 18.2825C163.147 18.6631 163.137 18.9486 163.115 19.139H150.649C150.67 20.5982 151.156 21.7719 152.108 22.6601C153.081 23.5483 154.307 23.9924 155.788 23.9924C157.776 23.9924 159.298 23.2205 160.356 21.6767L162.64 23.3897C162.111 24.2991 161.265 25.1344 160.102 25.8957C158.939 26.6359 157.48 27.006 155.724 27.006C153.165 27.006 151.093 26.2024 149.507 24.5951ZM150.776 16.7598H159.626C159.563 15.4275 159.118 14.3912 158.294 13.6511C157.469 12.8897 156.443 12.5091 155.217 12.5091C154.011 12.5091 152.996 12.9003 152.171 13.6828C151.347 14.4441 150.881 15.4698 150.776 16.7598Z" fill="white"/>
<path d="M34.6465 23.5022C33.797 23.5745 32.947 23.3695 32.2162 22.9159C31.4853 22.4624 30.9104 21.7832 30.5723 20.974L29.0567 17.4344C28.8275 16.9034 28.4575 16.4504 27.9896 16.1281C27.5217 15.8057 26.975 15.6271 26.413 15.613C25.8509 15.5989 25.2965 15.7498 24.814 16.0483C24.3315 16.3468 23.9407 16.7807 23.6869 17.2995L21.1853 22.4067C20.8496 23.091 20.3347 23.6639 19.6993 24.0603C19.064 24.4566 18.3338 24.6604 17.5919 24.6484C16.8345 24.6312 16.0962 24.3999 15.4569 23.9795C14.8177 23.559 14.302 22.9655 13.9659 22.2634L12.7925 19.7941C12.5614 19.3097 12.2111 18.8968 11.7767 18.5969C11.3424 18.2969 10.8393 18.1206 10.3182 18.0856C9.797 18.0505 9.27611 18.1581 8.80788 18.3973C8.33966 18.6366 7.9406 18.9992 7.65086 19.4486L3.57666 25.803C3.47053 25.9639 3.40077 26.1474 3.37256 26.34C3.34435 26.5325 3.35841 26.7292 3.41369 26.9154C3.52777 27.3284 3.64999 27.7582 3.76407 28.1543C3.82864 28.4019 3.96055 28.6251 4.14413 28.7975C4.32772 28.9699 4.55529 29.0841 4.7998 29.1267C5.04431 29.1693 5.29551 29.1384 5.52356 29.0378C5.75161 28.9371 5.94694 28.7709 6.08636 28.5588L6.79527 27.4632C7.19533 26.8624 7.73935 26.3793 8.3741 26.0611C9.00885 25.743 9.71258 25.6008 10.4164 25.6483C11.1203 25.6959 11.8001 25.9316 12.3895 26.3325C12.9788 26.7334 13.4574 27.2856 13.7784 27.9351L14.9763 30.4634C15.2245 30.9742 15.6052 31.4035 16.0757 31.7036C16.5462 32.0036 17.088 32.1624 17.6408 32.1624C18.1935 32.1624 18.7354 32.0036 19.2059 31.7036C19.6764 31.4035 20.057 30.9742 20.3053 30.4634L22.7498 25.4069C23.1007 24.7028 23.6363 24.1153 24.2953 23.7117C24.9542 23.3081 25.7098 23.1047 26.4754 23.125C27.241 23.1452 27.9855 23.3882 28.6237 23.8261C29.2618 24.264 29.7678 24.879 30.0834 25.6007L31.6071 29.1487C31.8077 29.6285 32.1205 30.0491 32.5174 30.3728C32.9142 30.6965 33.3827 30.913 33.8805 31.0028H34.0842C34.5836 31.0382 35.082 30.9203 35.5168 30.6639C35.9517 30.4075 36.3037 30.0241 36.5288 29.5617C37.1506 28.2983 37.3347 26.8526 37.0503 25.4659V25.3563C36.9419 24.7947 36.6363 24.2945 36.1924 23.9521C35.7485 23.6098 35.1978 23.4495 34.6465 23.5022Z" fill="url(#paint0_linear_1887_11071)"/>
<path d="M10.4206 16.9961C11.1269 17.0341 11.8106 17.2666 12.4008 17.6697C12.9911 18.0727 13.4664 18.6315 13.7777 19.2884L14.9837 21.8167C15.2309 22.3255 15.6105 22.7528 16.0798 23.0506C16.5491 23.3484 17.0895 23.5048 17.6401 23.5022C18.1913 23.5025 18.7318 23.3452 19.202 23.0478C19.6722 22.7504 20.0538 22.3243 20.3046 21.8167L22.7491 16.7601C23.0992 16.0557 23.6342 15.4676 24.2927 15.0633C24.9512 14.659 25.7065 14.4548 26.4721 14.4741C27.2377 14.4935 27.9825 14.7356 28.6211 15.1727C29.2597 15.6098 29.7662 16.2243 30.0827 16.9455L31.6064 20.4767C31.816 20.9884 32.1523 21.434 32.5815 21.7683C33.0107 22.1027 33.5175 22.3142 34.0509 22.3813H34.0998C34.3771 22.4003 34.6547 22.352 34.9108 22.2403C35.1668 22.1287 35.394 21.9567 35.5745 21.7382C35.7549 21.5197 35.8835 21.2606 35.95 20.9816C36.0165 20.7026 36.0192 20.4114 35.9577 20.1311C35.6046 18.5468 35.227 16.968 34.825 15.3948C34.7752 15.2018 34.6713 15.0283 34.5262 14.8964C34.3812 14.7644 34.2017 14.6798 34.0102 14.6532C33.295 14.5878 32.6099 14.3249 32.0265 13.892C31.4431 13.4591 30.9829 12.8721 30.6938 12.1924L29.1375 8.57692C28.9091 8.04551 28.5398 7.59192 28.0723 7.26877C27.6049 6.94562 27.0584 6.76614 26.4963 6.75115C25.9342 6.73615 25.3796 6.88625 24.8966 7.18404C24.4136 7.48184 24.0222 7.91512 23.7677 8.43365L21.3231 13.4902C20.979 14.174 20.4601 14.747 19.8229 15.1469C19.1857 15.5467 18.4547 15.7582 17.7093 15.7582C16.964 15.7582 16.233 15.5467 15.5958 15.1469C14.9586 14.747 14.4397 14.174 14.0955 13.4902L12.8977 10.9619C12.6648 10.4795 12.3138 10.0687 11.8795 9.77041C11.4453 9.47209 10.9431 9.29671 10.4228 9.26175C9.90264 9.2268 9.38266 9.33348 8.91474 9.57116C8.44683 9.80885 8.04733 10.1692 7.75607 10.6164L2.05219 19.5159C1.95173 19.6715 1.88387 19.8471 1.853 20.0315C1.82212 20.2158 1.82891 20.4048 1.87293 20.5862C1.987 21.075 2.10108 21.5554 2.22331 22.0358C2.2867 22.2882 2.41909 22.5164 2.60462 22.693C2.79014 22.8696 3.02095 22.9872 3.26941 23.0316C3.51787 23.0761 3.77346 23.0455 4.00557 22.9437C4.23768 22.8418 4.43649 22.6729 4.57819 22.4572L6.90049 18.8417C7.28292 18.2456 7.80824 17.7622 8.42519 17.4388C9.04215 17.1153 9.72964 16.9628 10.4206 16.9961Z" fill="url(#paint1_linear_1887_11071)"/>
<path d="M30.8327 33.3877C31.0676 33.2901 31.276 33.1346 31.4397 32.9348C31.6035 32.735 31.7176 32.4969 31.7722 32.2411C31.8268 31.9854 31.8202 31.7197 31.753 31.4672C31.6859 31.2147 31.5601 30.9829 31.3868 30.792C31.0817 30.4522 30.8339 30.0619 30.6534 29.6374L29.0971 26.0304C28.8687 25.499 28.4994 25.0454 28.0319 24.7223C27.5645 24.3991 27.018 24.2196 26.4559 24.2046C25.8938 24.1896 25.3392 24.3397 24.8562 24.6375C24.3733 24.9353 23.9818 25.3686 23.7273 25.8871L21.2828 30.9437C20.9471 31.6337 20.4325 32.2136 19.7965 32.6184C19.1604 33.0233 18.428 33.2371 17.6812 33.236C16.9336 33.2359 16.201 33.0196 15.566 32.6116C14.931 32.2035 14.419 31.62 14.0877 30.9268L12.8818 28.3986C12.6507 27.9142 12.3003 27.5012 11.866 27.2013C11.4316 26.9014 10.9286 26.7251 10.4074 26.69C9.88626 26.655 9.36537 26.7625 8.89715 27.0018C8.42892 27.2411 8.02987 27.6036 7.74012 28.053L5.35264 31.6432C5.24757 31.8078 5.17917 31.9945 5.1524 32.1898C5.12562 32.3851 5.14114 32.5841 5.19782 32.7725L5.65413 34.1883C6.11418 35.6376 7.07577 36.86 8.35417 37.6206C9.63257 38.3813 11.1376 38.6266 12.5803 38.3094L14.9433 37.7953C20.2844 36.632 25.5591 35.1633 30.743 33.3961H30.8327V33.3877Z" fill="url(#paint2_linear_1887_11071)"/>
<path d="M31.8918 11.9648C32.08 12.0821 32.2977 12.1386 32.5171 12.1267C32.7365 12.1149 32.9475 12.0355 33.1228 11.8986C33.2981 11.7616 33.4298 11.5736 33.5009 11.3586C33.5719 11.1436 33.5791 10.9115 33.5215 10.6922C33.1223 9.33539 32.7067 7.97855 32.283 6.63013L31.5252 4.25355C31.062 2.80643 30.0999 1.58637 28.8223 0.826239C27.5448 0.0661064 26.0414 -0.180865 24.599 0.132462L22.236 0.646545C16.8874 1.81905 11.6047 3.29327 6.41181 5.0626L4.11397 5.84637C2.71374 6.32379 1.53298 7.31861 0.797781 8.64036C0.0625778 9.96211 -0.175405 11.5179 0.129401 13.0098L0.626453 15.4538C0.677407 15.7124 0.80149 15.9495 0.982952 16.1349C1.16441 16.3204 1.39507 16.446 1.64565 16.4957C1.89623 16.5453 2.15542 16.5169 2.39033 16.4139C2.62524 16.3109 2.82528 16.1381 2.96504 15.9173L6.79479 10.018C7.19484 9.4172 7.73887 8.93408 8.37362 8.61595C9.00837 8.29782 9.7121 8.15559 10.4159 8.20315C11.1198 8.25072 11.7996 8.48647 12.389 8.88732C12.9783 9.28818 13.4569 9.84041 13.778 10.49L14.9839 13.0182C15.2313 13.5252 15.6098 13.9511 16.0774 14.2487C16.5449 14.5463 17.0832 14.7038 17.6322 14.7038C18.181 14.7029 18.7188 14.5449 19.1862 14.2475C19.6536 13.95 20.0323 13.5245 20.2804 13.0182L22.7249 7.96169C23.0758 7.25764 23.6114 6.67011 24.2703 6.2665C24.9293 5.8629 25.6849 5.65955 26.4505 5.67978C27.216 5.70002 27.9606 5.94302 28.5988 6.38091C29.2369 6.8188 29.7428 7.43385 30.0585 8.15553L31.4844 11.4676C31.5728 11.6645 31.7107 11.8333 31.8837 11.9564L31.8918 11.9648Z" fill="url(#paint3_linear_1887_11071)"/>
<defs>
<linearGradient id="paint0_linear_1887_11071" x1="3.3648" y1="23.8731" x2="37.1969" y2="23.8731" gradientUnits="userSpaceOnUse">
<stop stop-color="#973CCE"/>
<stop offset="0.71" stop-color="#67529D"/>
</linearGradient>
<linearGradient id="paint1_linear_1887_11071" x1="1.72626" y1="15.1673" x2="36.0066" y2="15.1673" gradientUnits="userSpaceOnUse">
<stop stop-color="#604D9A"/>
<stop offset="1" stop-color="#973CCE"/>
</linearGradient>
<linearGradient id="paint2_linear_1887_11071" x1="5.13263" y1="31.3314" x2="31.8105" y2="31.3314" gradientUnits="userSpaceOnUse">
<stop stop-color="#67539E"/>
<stop offset="1" stop-color="#973CCE"/>
</linearGradient>
<linearGradient id="paint3_linear_1887_11071" x1="-0.000973386" y1="8.27351" x2="33.5786" y2="8.27351" gradientUnits="userSpaceOnUse">
<stop stop-color="#973CCE"/>
<stop offset="0.71" stop-color="#604C9A"/>
</linearGradient>
</defs>
</svg>
